<svg xmlns="http://www.w3.org/2000/svg" width="38" height="54" viewBox="0 0 38 54">
  <path id="Path_12" data-name="Path 12" d="M5.465,5.577A18.386,18.386,0,0,1,18.936,0,18.493,18.493,0,0,1,32.408,5.514,18.083,18.083,0,0,1,38,18.887a25.79,25.79,0,0,1-1.97,9.063,52.516,52.516,0,0,1-4.766,9.507q-2.8,4.373-5.592,8.239t-4.7,6.148L18.936,54q-.763-.761-2.033-2.282t-4.512-5.894q-3.241-4.373-5.783-8.493a57.889,57.889,0,0,1-4.575-9.317A25.589,25.589,0,0,1,0,18.887,18.084,18.084,0,0,1,5.465,5.577ZM14.107,23.7a6.831,6.831,0,0,0,4.829,1.9,6.713,6.713,0,0,0,4.829-1.965,6.573,6.573,0,0,0,0-9.507,6.713,6.713,0,0,0-4.829-1.965A6.717,6.717,0,0,0,12.2,18.887,6.794,6.794,0,0,0,14.107,23.7Z" fill="#e84043" opacity="0.679"/>
</svg>
