<svg xmlns="http://www.w3.org/2000/svg" width="2259.988" height="2097" viewBox="0 0 2259.988 2097">
  <g id="Group_1" data-name="Group 1" transform="translate(-2949.951 -199)">
    <g id="Logo" transform="translate(3008 1153.85)">
      <path id="Path_15" data-name="Path 15" d="M431.39-951.531c-30.733,3.442-50.648,9.1-76.71,22.865-18.686,9.589-20.9,12.539-16.719,21.636,2.213,4.672,1.967,8.605,0,15.981-2.213,6.884-2.213,11.31-.492,15.244,4.425,9.589,36.88,23.357,122.195,51.877,18.44,6.146,38.109,13.522,43.518,16.473,5.655,2.7,14.506,6.638,19.669,8.605,5.409,1.721,30,14.26,54.828,28.029,24.832,13.522,47.206,24.586,49.419,24.586,4.671,0,23.357,11.064,37.371,21.882,4.18,3.442,14.014,8.36,21.882,11.064,12.785,4.672,14.506,6.146,17.457,15.49,3.688,10.572,22.619,29.258,35.9,35.4,3.688,1.721,9.1,7.13,12.539,12.047,3.442,5.163,11.31,12.293,17.7,16.227a113.673,113.673,0,0,1,19.177,15.244c4.18,4.672,14.506,15.736,23.111,24.586,8.605,9.1,21.636,25.816,29.258,37.372s16.227,23.6,18.932,26.553c7.376,8.359,19.669,12.785,36.142,12.785,7.868,0,25.57,2.459,39.338,5.409,21.144,4.425,26.8,4.917,35.9,2.459,5.9-1.721,22.62-2.95,37.125-2.95,38.6,0,57.041-5.9,75.481-23.849,5.409-5.163,15-13.768,21.636-18.931,11.064-9.1,11.556-10.081,11.556-22.128,0-14.752-3.2-20.652-25.078-46.96-8.605-10.081-19.177-23.357-23.6-29.012-19.177-24.095-49.665-55.074-85.807-86.79-21.39-18.686-40.076-35.159-41.551-36.634-31.962-30-104.492-79.168-138.668-93.92-7.376-3.2-19.669-9.1-27.045-12.785-23.111-12.047-63.925-27.783-105.722-40.568C623.656-938.746,614.067-941.2,567.6-951.531,546.946-955.957,472.7-955.957,431.39-951.531Z" transform="translate(397.003 0)" fill="#c93635"/>
      <path id="Path_16" data-name="Path 16" d="M454.168-832.366a256.76,256.76,0,0,1-25.078,16.473c-13.523,7.376-18.44,15.243-32.946,53.844-13.523,35.4-17.948,66.138-24.832,168.171-2.213,31.717-5.9,73.268-8.359,92.2-6.638,47.452-8.605,121.457-3.934,133.5,5.655,14.752,5.9,28.52,1.721,95.641-2.213,34.913-3.688,72.776-3.442,84.332s.492,43.026.492,70.071c-.246,52.861,3.2,89.495,13.768,146.289,3.442,18.194,7.13,40.322,8.359,49.173,3.688,26.8,40.814,102.034,73.022,148.748,25.078,35.9,31.225,43.272,46.223,53.6,46.96,31.962,61.958,41.8,67.613,44.01,3.2,1.229,9.343,3.688,13.523,5.409,3.934,1.967,11.31,4.671,15.981,6.393s10.818,3.934,13.523,4.917c2.7,1.229,11.556,3.934,19.669,6.392,8.114,2.213,15.735,5.163,16.965,6.392,1.475.984,6.393,1.967,11.064,1.967a102.7,102.7,0,0,1,18.686,2.459A253.657,253.657,0,0,0,702,360.569c8.851.246,16.473,1.229,17.211,2.213,1.967,2.459,76.218,12.293,111.868,15,94.658,7.13,162.271,4.426,245.865-9.1,12.293-1.967,36.634-5.9,54.09-8.851,35.159-5.409,66.383-13.768,93.183-24.586,14.506-5.9,20.407-10.326,34.667-25.324,17.21-18.194,33.192-42.289,41.551-62.941,2.459-6.147,5.9-14.506,7.622-18.44,1.721-4.18,4.426-11.8,6.147-17.211s3.934-11.064,4.917-12.293c4.917-7.376,8.605-34.421,8.359-64.171-.738-56.795-8.359-87.528-34.667-139.9-8.851-17.456-17.21-33.683-18.44-35.65-4.18-6.393-14.506-13.031-20.652-13.031-3.2,0-5.163-.738-4.672-1.721.737-.983-1.229-2.459-4.426-3.442-3.2-.738-13.031-8.851-21.882-17.948s-20.9-19.669-26.8-23.111c-8.851-5.163-11.8-9.1-16.719-20.9-12.293-30.487-18.194-40.568-25.078-44.256-12.785-6.638-21.882,2.7-21.882,22.374,0,13.277-1.721,14.26-29.5,17.7l-18.44,2.459-9.343-8.359c-9.589-8.605-11.064-9.1-17.7-6.638-8.605,3.442-19.177,34.667-19.423,58.762-.246,12.539.738,16.227,6.392,23.6,10.326,13.523,14.26,27.291,14.26,51.14,0,18.932-.738,22.374-6.147,29.75-7.622,10.326-7.622,13.031-.492,24.341,4.672,7.622,5.409,11.8,4.917,31.962-.492,22.128-.738,23.357-9.834,36.388-16.473,24.095-16.473,24.095-46.223,28.52-51.877,7.868-98.592,14.014-127.849,16.719-38.109,3.442-136.947,5.163-130.308,2.213,3.688-1.721,2.213-2.213-7.376-2.459a110.885,110.885,0,0,0-15.244-.246c-1.721.246-3.2-.492-3.2-1.721,0-2.95-44.01-12.539-74.989-16.719-6.638-.737-21.636-3.688-33.192-6.147-56.057-12.785-61.466-15.981-61.466-36.634,0-5.655-1.229-17.456-2.459-26.553-1.475-9.1-3.688-57.532-4.917-107.443-1.229-50.156-3.688-125.391-5.163-167.188-1.967-58.762-1.967-89.987.492-136.455,1.721-33.192,3.442-100.559,3.934-149.977.983-104.247,4.671-149.732,14.26-173.826,4.426-10.818,7.13-23.849,8.605-42.535,1.475-14.752,3.442-29.5,4.917-33.192,6.638-17.7-2.213-41.059-22.128-57.778-7.13-6.146-14.26-12.293-15.735-13.523C485.884-845.643,476.3-849.085,454.168-832.366Z" transform="translate(426.595 164.809)" fill="#c93635"/>
      <path id="Path_17" data-name="Path 17" d="M691.752-670.4C684.13-667.7,677-658.846,677-652.208c0,5.163,3.2,10.081,12.539,18.686,6.884,6.392,22.619,23.357,34.667,37.617,19.915,23.111,49.173,55.565,69.334,77.2a305.91,305.91,0,0,1,19.915,24.833c7.13,9.343,15.981,19.915,19.669,23.357s9.1,11.556,12.293,18.44c2.951,6.638,8.851,15.489,13.031,19.177,4.18,3.934,11.064,15.489,15.49,25.816,4.426,10.572,8.851,19.915,10.08,21.39a11.251,11.251,0,0,1,1.967,5.9c0,1.967,3.934,13.768,8.851,26.062,18.194,45.485,20.653,52.123,28.274,74.989,6.392,18.932,7.867,27.291,7.867,44.256-.246,20.653,1.229,26.062,16.719,65.646.983,2.95,7.622,9.589,14.752,14.752,16.965,12.539,34.175,29.75,34.175,34.175,0,2.95,12.539,18.194,15,18.194,1.229,0,2.213-3.934,2.213-8.605,0-5.655,1.475-9.343,3.934-10.326,2.213-.738,17.948,4.18,34.913,10.818,17.21,6.884,41.551,15,54.336,17.948,20.161,4.917,24.832,5.409,38.109,2.95,15.981-2.95,17.21-3.934,32.208-26.8,12.785-19.177,11.8-28.274-8.605-79.414-3.934-10.081-14.014-36.634-21.882-59.007-42.535-118.015-69.088-165.959-125.145-226.2-43.026-45.977-53.844-56.549-86.544-84.577-3.442-2.951-14.506-12.293-24.586-21.144-19.423-16.719-52.369-41.8-55.074-41.8-.983,0-8.359-3.2-16.965-7.13-8.36-3.934-23.6-10.08-33.683-13.768s-28.029-10.326-40.076-15c-19.423-7.622-23.6-8.359-45.485-8.114C706.258-671.877,693.719-671.14,691.752-670.4Z" transform="translate(894.15 412.701)" fill="#c93635"/>
      <path id="Path_18" data-name="Path 18" d="M554.5-666.241c-21.144,2.213-53.844,10.326-64.417,15.735-9.1,4.917-19.423,16.227-21.636,24.095a66.824,66.824,0,0,1-3.688,10.572c-.983,2.7-4.18,11.064-6.884,18.44-12.785,35.159-19.423,50.894-23.849,57.778-5.163,7.622-9.343,15-23.6,43.026-15.735,31.225-57.286,94.9-78.923,120.72-8.605,10.326-23.849,29.012-33.929,41.8-34.175,42.781-47.944,54.336-137.192,115.8-13.031,9.1-30,19.423-37.371,23.111s-21.144,10.326-30.733,15C69.9-169.349,64-163.448,64-153.122c0,6.638,1.475,9.1,7.868,13.031,7.13,4.426,12.539,4.917,45.239,4.917,73.022,0,109.164-5.9,162.517-26.062,19.177-7.376,36.634-13.277,38.355-13.277,1.967,0,11.064-3.934,20.161-8.605,9.343-4.671,23.6-9.835,31.717-11.31,13.523-2.213,27.537-7.868,30.979-12.047a117.927,117.927,0,0,1,9.835-7.376c19.177-13.277,44.01-34.913,61.466-53.353,63.433-67.121,140.389-162.025,148.5-183.415,1.475-3.688,3.442-6.638,4.426-6.638a2.25,2.25,0,0,0,1.967-2.459c0-1.229,3.688-8.113,8.359-15.244,17.21-27.291,31.225-59.5,49.173-113.835,11.8-35.9,11.8-43.272-.492-52.369-9.1-6.638-35.65-16.473-60.729-22.62C607.607-667.471,576.382-668.7,554.5-666.241Z" transform="translate(0 419.113)" fill="#c93635"/>
    </g>
    <g id="Text" transform="translate(2922.939 2342)">
      <path id="Path_5" data-name="Path 5" d="M464-405.1c0,1.7-1.2,2-10.2,2.7-9.1.8-10.3,1.1-10.7,2.9-.5,2.7-1.9,3.5-6.1,3.5-2.7,0-3.8.5-4.5,2.2a4.669,4.669,0,0,1-3.7,2.6c-2.2.3-2.8.9-2.8,2.6,0,2.4-2.9,3.6-8.6,3.6-1.7,0-2.4.6-2.4,1.9a2.236,2.236,0,0,1-2.2,2.3c-1.6.2-2.4,1.1-2.6,3-.3,2.1-.9,2.7-3,3-1.9.2-2.8,1-3,2.5a2.773,2.773,0,0,1-2.5,2.5c-1.5.2-2.3,1.1-2.5,2.9-.3,2.4-.9,2.7-5.4,3.3-3.8.5-5.1,1.2-5.5,2.7a4.339,4.339,0,0,1-2.9,2.5,3.725,3.725,0,0,0-2.6,2.7,4.43,4.43,0,0,1-2.4,3.1,7.23,7.23,0,0,0-3,3A5.38,5.38,0,0,1,374-347a3.534,3.534,0,0,0-2.8,2.7,3.408,3.408,0,0,1-2.8,2.7,2.822,2.822,0,0,0-2.4,2.5,2.755,2.755,0,0,1-2,2.4c-1.5.4-2,1.4-2,3.6,0,2.8-.3,3.1-2.9,3.1-2.7,0-3,.3-3.6,4.9-.5,4.1-1.1,5-2.8,5.3a2.773,2.773,0,0,0-2.5,2.5c-.2,1.5-1.1,2.3-3,2.5s-2.8,1-3,2.5a2.773,2.773,0,0,1-2.5,2.5c-1.6.2-2.3,1.1-2.5,3-.3,2.2-.9,2.8-2.7,2.8s-2.6.7-3.1,2.5a4.522,4.522,0,0,1-2.5,3,2.914,2.914,0,0,0-1.9,2.4,4.185,4.185,0,0,1-4.1,4.1c-1.3,0-1.9,1.2-2.4,4.9-.5,4.1-1.1,5-2.8,5.3a2.773,2.773,0,0,0-2.5,2.5c-.2,1.5-1.1,2.3-3,2.5-2.1.2-2.8.9-3,3-.2,1.9-1,2.8-2.5,3a2.773,2.773,0,0,0-2.5,2.5c-.2,1.7-1,2.3-2.7,2.3-1.9,0-2.4.6-2.7,3.2-.2,2.8-.8,3.4-3,3.6-2,.2-2.8.9-2.8,2.3,0,1.6-.7,1.9-4.5,1.9-3.7,0-4.5-.3-4.5-1.9,0-1.5-1-1.9-5.2-2.5-6.9-.8-42-.8-53.6,0-8.1.6-9.2.9-9.2,2.5s-.8,1.9-4.9,1.9c-2.6,0-7.6.3-11,.6-5.6.6-6.1.9-6.1,3s-.5,2.4-3.7,2.4c-7.5,0-11.2,1.1-11.5,3.4-.3,1.8-1.1,2.1-6,2.4-5.3.3-5.8.5-5.8,2.6,0,2.4-2.9,3.6-8.6,3.6-1.7,0-2.4.6-2.4,1.9,0,1.9-3.4,3.1-8.6,3.1-1.9,0-2.4.5-2.4,2.4,0,1.8-.6,2.5-2.2,2.8a2.786,2.786,0,0,0-2.6,2.5c-.3,1.8-1.2,2.3-5.8,2.9-4.8.6-5.4.9-5.4,2.9,0,1.8-.6,2.4-2.7,2.7-2,.2-2.9.9-3.1,2.5-.3,1.9-1,2.3-4.2,2.3-5.1,0-7,.8-7,3a2.285,2.285,0,0,1-2.2,2.2c-1.6.2-2.4,1.1-2.6,3-.3,2.3-.9,2.7-5.2,3.3-4,.5-4.9,1.1-5.2,2.8-.2,1.5-1.2,2.3-3.3,2.7s-3.1,1.2-3.3,2.7a3.408,3.408,0,0,1-2.8,2.7A2.829,2.829,0,0,0,87-186c0,1.3-.8,2-2.7,2.2-2.2.2-2.9.9-3.1,3-.2,1.9-1,2.8-2.5,3a2.773,2.773,0,0,0-2.5,2.5,2.773,2.773,0,0,1-2.5,2.5c-1.5.2-2.3,1.1-2.5,3-.3,2.1-.9,2.7-3,3-1.9.2-2.8,1-3,2.5a2.773,2.773,0,0,1-2.5,2.5c-1.6.2-2.3,1.1-2.5,3-.3,2.2-.9,2.8-2.7,2.8s-2.6.7-3.1,2.5a4.4,4.4,0,0,1-2.4,3c-1.2.4-1.9,2-2.4,5.5-.6,4.4-.9,4.9-3.4,5.2-2.1.2-2.8.9-3,3-.2,1.9-.9,2.8-2.2,2.8-1.4,0-1.9,1.1-2.4,5.4-.6,4.6-1.1,5.5-2.9,5.8-1.7.2-2.4,1.3-3,5-.6,3.1-1.5,4.8-2.6,5.1-1.5.3-1.9,2-2.4,8.8-.9,10.7-.9,26.3-.1,32.3.5,3.6,1.1,4.6,2.5,4.6,1.6,0,1.9.8,1.9,4.3,0,4.6,1.3,6.7,4.2,6.7Q38-56,38-53.6c0,2.2.5,2.5,5.5,3.1,4.5.6,5.5,1.1,5.5,2.6,0,1.8,1.1,1.9,22.5,1.9C93-46,94-46.1,94-47.9c0-1.7,1-2,8.5-2.6,8.1-.7,8.5-.9,8.5-3.1,0-2,.6-2.4,5-3,3.5-.5,5.1-1.2,5.5-2.4a4.4,4.4,0,0,1,3-2.4c1.8-.5,2.5-1.3,2.5-3,0-1.9.7-2.4,3.8-3a63.236,63.236,0,0,1,7.7-.6c3.2,0,4.2-.5,5-2.3a4.912,4.912,0,0,1,3.3-2.5c1.6-.2,2.2-1,2.2-2.7,0-2,.6-2.4,4.9-3,4.1-.5,5-1.1,5.3-2.8.2-1.6,1.1-2.3,3.1-2.5,1.9-.2,2.7-.9,2.7-2.2,0-2.4,2.9-4,6.9-4,2.6,0,3.1-.4,3.1-2.5s.5-2.5,2.9-2.5c2.5,0,3-.4,3.3-2.8.2-2.1.9-2.8,3.1-3,1.9-.2,2.7-.9,2.7-2.2s.8-2,2.8-2.2c2.1-.2,2.8-.9,3-3,.3-2.5.8-2.8,5.2-3.4,4-.5,4.9-1,5.2-2.8a2.768,2.768,0,0,1,2.5-2.4,3.674,3.674,0,0,0,2.8-2.1c.3-1,1.9-2.1,3.5-2.5,2.4-.4,3-1.1,3-3,0-1.8.6-2.5,2.3-2.8a2.786,2.786,0,0,0,2.5-2.6c.3-1.9.9-2.2,4.6-2.2,4.1,0,4.4.2,5,3.1a39.95,39.95,0,0,1,.6,5.5c0,1.9.5,2.4,2.5,2.4,2.1,0,2.5.5,2.5,2.9,0,6.9,1.3,12.4,3.1,12.8a3.509,3.509,0,0,1,2.1,2.7c.2,1.4,1.1,2.2,3,2.4,2.1.3,2.7.9,3,3,.2,1.9,1,2.8,2.6,3a2.236,2.236,0,0,1,2.2,2.3c0,1.3.7,1.9,2.4,1.9,5.6,0,8.6,1.2,8.6,3.5,0,1.9.7,2.3,5.3,2.9,6.8.8,33.8.8,50-.1,12.3-.6,12.7-.7,12.7-2.9,0-2,.6-2.2,8-2.9,6.9-.6,8-1,8-2.6,0-1.7.8-1.9,7.4-1.9h7.4l.6,3.1a56.962,56.962,0,0,1,.6,8c0,4.2.3,4.9,1.9,4.9,1.7,0,2,.8,2.3,5.3s.6,5.2,2.5,5.5c1.5.2,2.3,1.1,2.5,3,.2,2.1.9,2.8,3.1,3,1.8.2,2.7.9,2.7,2.2,0,2.2,1.9,3,7.1,3,3.4,0,3.9.3,3.9,2.4,0,2,.6,2.4,4.6,3,6,.8,20.6.8,32.2,0,8.8-.7,9.2-.8,9.2-3s.4-2.4,5.3-2.4c9.8,0,15.6-1.1,16.2-3.1.4-1.2,2-2,5.1-2.5,3.5-.5,4.5-1.1,5-2.9.5-1.9,1.5-2.5,5.4-3,4-.5,4.9-1.1,5.2-2.8.2-1.7,1.1-2.3,3.6-2.5,2.6-.3,3.2-.7,3.2-2.7,0-2.2.6-2.5,5.1-3.1,3.7-.5,5.3-1.2,5.6-2.5a4.362,4.362,0,0,1,2.9-2.3c1.7-.5,2.4-1.3,2.4-3,0-2.1.6-2.5,4.9-3.1,3.5-.5,5-1.2,5.4-2.5.3-1,1.8-2.1,3.6-2.5,2.4-.5,3.1-1.2,3.1-3,0-2.1.6-2.5,4.9-3.1,4.1-.5,5-1,5.3-2.8.2-1.5,1.1-2.2,3.1-2.4,2.1-.3,2.7-.9,2.7-2.7,0-2,.6-2.4,4.9-3,4.1-.5,5-1.1,5.3-2.8.2-1.7,1.1-2.3,3.6-2.5,2.4-.2,3.2-.8,3.2-2.3,0-1.6.7-1.9,3.9-1.9,3.9,0,4,.1,4.6,4.4.6,3.5,1.2,4.6,2.8,4.8,1.4.2,2.4,1.4,2.9,3.5.6,2.3,1.4,3.3,2.8,3.3,1.6,0,2,.7,2,3.7,0,4.7.8,6,4,6.4,1.7.3,2.6,1.1,2.8,2.6.3,1.7,1.2,2.3,5.2,2.8s4.9,1.1,5.2,2.8c.2,1.8,1.3,2.4,5.6,3.1,3.9.7,5.2,1.3,5.2,2.6,0,1.6,1.9,1.8,22.8,2.1,12.5.3,30,.3,39,.1,15.1-.4,16.2-.5,16.2-2.3,0-1.7.8-1.9,6.8-1.9,10.5,0,14.1-.9,14.8-3.6.5-1.8,1.5-2.4,5.6-2.9,3.7-.5,5.2-1.2,5.5-2.5.4-1.3,1.9-2,5.4-2.5,3.9-.6,4.9-1.1,4.9-2.6,0-2.3,3.6-3.9,8.6-3.9,2.7,0,3.4-.4,3.4-1.9,0-1.6,1-2.1,5.5-2.6,4.9-.7,5.5-1,5.5-3.1,0-2.2.4-2.4,4.5-2.4H749v4.5c0,3.8-.3,4.5-2,4.5-1.4,0-2,.7-2,2.4,0,5.8-1.2,8.6-3.6,8.6-1.9,0-2.4.5-2.4,2.4,0,5.1-1.2,8.6-3,8.6-2.5,0-2.9,1.8-2.3,10.5.5,6.4.9,7.9,2.5,8.3a2.46,2.46,0,0,1,1.8,2.3c0,1.3.7,1.9,2.4,1.9,5.8,0,8.6,1.2,8.6,3.6s.1,2.4,11.5,2.4c11,0,11.5-.1,11.5-2.1,0-1.4,1-2.4,3-3.2,1.7-.7,3-1.9,3-2.9,0-1.1.9-1.8,2.8-2,2.1-.2,2.8-.9,3-3,.3-2.5.8-2.8,5.3-3.4,4.3-.6,4.9-.9,4.9-3,0-1.9.5-2.4,2.4-2.4s2.5-.6,2.8-2.8c.2-2.1.9-2.8,3.2-3,1.8-.2,3-1.1,3.3-2.3a2.791,2.791,0,0,1,2.4-1.9c1.3,0,2.1-.9,2.5-2.9.5-2.2,1.3-3,3.5-3.5,2-.4,2.9-1.1,2.9-2.5,0-1.3.8-2.1,2.3-2.3s2.3-1.1,2.5-3c.3-2.3.9-2.7,5.3-3.3,4.3-.6,4.9-1,4.9-3.1,0-2,.5-2.4,3-2.4,2.7,0,3-.3,3-3,0-2.5.4-3,2.4-3,1.8,0,2.5-.6,2.8-2.3a2.773,2.773,0,0,1,2.5-2.5,2.866,2.866,0,0,0,2.5-2.5c.2-1.5,1.2-2.3,3.3-2.7s3.1-1.2,3.3-2.7a3.408,3.408,0,0,1,2.8-2.7A2.829,2.829,0,0,0,860-130c0-1.3.8-2,2.8-2.2,2.1-.2,2.8-.9,3-3,.3-2.5.8-2.8,5.3-3.4,4.3-.6,4.9-.9,4.9-3,0-1.9.5-2.4,2.4-2.4s2.5-.6,2.8-2.8c.2-2.1.9-2.8,3.2-3,1.8-.2,3-1.1,3.3-2.3.4-1.4,1.8-2,5.4-2.5,4.6-.6,4.9-.8,4.9-3.5,0-2.3.4-2.9,2.3-2.9a3.526,3.526,0,0,0,3.2-2.3,4.8,4.8,0,0,1,3.8-2.5c2.1-.3,2.7-.9,2.7-2.7,0-2.2.6-2.5,5-3.1s5-.9,5-3c0-1.9.5-2.4,2.4-2.4s2.5-.6,2.8-2.8c.2-2.2.8-2.8,3.6-3,2.3-.2,3.2-.8,3.2-2.2,0-1.5,1-2,4.4-2.5,3.9-.6,4.5-1.1,4.8-3.4.2-2.1.9-2.7,3.6-2.9,2.4-.2,3.2-.8,3.2-2.2,0-1.6,1-2.1,5-2.6,4.1-.5,5-1,5-2.6,0-1.3,1.1-2.4,3-3.1,1.8-.7,3-1.9,3-2.9,0-1.4.8-1.8,3.3-1.8,5.1,0,7.7-1.1,7.7-3.1,0-1.6.8-1.9,4.5-1.9H984v4c0,3.3-.3,4-2,4s-2,.7-2,4.7c0,8.9-1,12.3-3.5,12.3-1.9,0-2.3.7-2.9,4.6-.3,2.6-.6,6.2-.6,8,0,2.6-.4,3.4-1.9,3.4-1.6,0-1.9,1.1-2.5,9.2a235.486,235.486,0,0,0,0,33.6c.6,7.9.9,9.2,2.5,9.2,1.3,0,1.9,1.1,2.5,4.5.5,3.8,1,4.5,2.9,4.5,1.8,0,2.4.7,2.9,3.5.5,2.5,1.2,3.5,2.6,3.5,1.2,0,2,.8,2.2,2.2.2,1.7,1.1,2.4,3.1,2.6,2.1.3,2.7.9,2.7,2.7s.7,2.6,2.4,3.1a4.362,4.362,0,0,1,2.9,2.3c.3,1.3,1.9,2,5.6,2.5,4.5.6,5.1.9,5.1,3,0,2.3.4,2.5,8.5,3.1,7.1.6,8.5,1,8.5,2.5s1.8,1.8,17.9,2.2c9.8.3,26.2.3,36.5,0,17.3-.4,18.6-.6,18.6-2.3,0-1.5.8-1.9,3.4-1.9,1.8,0,5.4-.3,8-.6,3.9-.6,4.6-1,4.6-2.9,0-1.8.7-2.4,3.8-2.9a61.5,61.5,0,0,1,7.4-.6c2.7,0,3.8-.5,4.3-1.9.4-1.3,2-2.1,5.8-2.7,4.2-.7,5.3-1.3,5.5-3,.2-1.5,1.2-2.4,3.3-2.8s2.9-1.1,2.9-2.6c0-1.7.6-2,4.3-2,4.6,0,6.7-1.3,6.7-4.2,0-1.3,1.1-1.9,5-2.4,3.5-.5,5.1-1.2,5.5-2.4.7-2.2,6.1-3.4,11-2.4,3.1.6,3.5,1,3.5,3.9,0,1.8.3,5.3.6,7.9.6,3.9,1,4.6,2.9,4.6,2,0,2.4.7,3,5.1.5,3.8,1.2,5.3,2.6,5.6a3.509,3.509,0,0,1,2.1,2.7,2.782,2.782,0,0,0,2.6,2.4,4.665,4.665,0,0,1,3.2,2.6c.9,2.4,4.8,3.6,12.3,3.6,3.3,0,3.7.3,3.7,2.5V-73h35v-2.5c0-2.3.4-2.5,4.3-2.5,2.4,0,8.5-.3,13.5-.6,7.9-.6,9.2-1,9.2-2.5,0-1.4,1.2-1.9,5.5-2.4,4.9-.7,5.5-1,5.5-3.1,0-2,.5-2.4,3.3-2.4,1.7,0,5.6-.3,8.5-.6,4-.5,5.2-1.1,5.2-2.4,0-1.8,3.6-3,8.6-3,1.9,0,2.4-.5,2.4-2.5,0-2.2.5-2.5,5-3.1,3.9-.5,5-1.1,5-2.4,0-1.4,1.1-2,5-2.5,4.1-.6,5.1-1.1,5.6-3s1.5-2.5,5.3-3c3.5-.5,4.9-1.2,5.6-2.8,1.2-2.7,3.2-3.1,10.1-2.2l5.4.6v5.2c0,2.9.3,8.9.7,13.4.5,7.1.9,8.3,2.4,8.3q1.8,0,2.1,2.7c.2,2.2.9,2.9,3,3.1,1.9.2,2.8,1,3,2.5a2.773,2.773,0,0,0,2.5,2.5c1.5.2,2.3,1.1,2.5,3,.2,2.1.9,2.8,3.1,3,1.8.2,2.7.9,2.7,2.2,0,1.4,1.1,1.9,5.5,2.5,5,.6,5.5.9,5.5,3.1s.4,2.4,4.9,2.4c7.6,0,11.1,1,11.1,3.1,0,1.8,1.3,1.9,28.5,1.9,27.1,0,28.5-.1,28.5-1.9,0-1.5,1.1-1.9,7.7-2.5,4.2-.3,10-.6,13-.6,5.2,0,5.3,0,5.3-3v-3h6c5.2,0,6-.3,6-1.9,0-2.1,3.5-3.1,11.1-3.1,4.5,0,4.9-.2,4.9-2.4,0-1.9.6-2.4,3.8-3a66.723,66.723,0,0,1,8-.6c3.5,0,4.5-.4,4.9-2,.4-1.5,1.7-2.1,5.4-2.6,3.9-.5,4.9-1,4.9-2.6,0-2.1,3.6-3.8,8.2-3.8,2.1,0,3.1-.6,3.5-1.9.4-1.5,1.8-2.2,5.7-2.8,4.2-.7,5.2-1.2,5.4-3,.3-1.9,1.2-2.4,5.2-2.9,3.5-.5,5.1-1.2,5.5-2.4a4.4,4.4,0,0,1,3-2.4c1.8-.5,2.5-1.3,2.5-3,0-2.2.5-2.5,5.5-3.1,4.3-.6,5.5-1.1,5.5-2.5,0-1.8,3.5-3,8.6-3,1.7,0,2.4-.6,2.4-2,0-1.1.7-2,1.5-2,1.2,0,1.5,1.4,1.5,7,0,6.2-.2,7-1.9,7-1.5,0-2,1-2.6,5.5-.6,4.9-.9,5.5-2.9,5.5s-2.4.7-3,4.6c-.3,2.6-.6,6.2-.6,8,0,2.7-.4,3.4-2,3.4-1.7,0-2,.7-2,4s.3,4,1.9,4a2.236,2.236,0,0,1,2.3,2.2c.2,1.7,1.1,2.4,3.1,2.6,2.1.3,2.7.9,2.7,2.6,0,2,.7,2.4,4.4,2.9,2.5.4,10.3.4,17.5,0,12.7-.6,13.1-.7,13.1-2.8,0-2.5,3-3.5,10.6-3.5,3.7,0,4.3-.3,4.6-2.2.2-1.7,1.1-2.4,3.1-2.6,2.1-.3,2.7-.9,2.7-2.7s.7-2.6,2.4-3.1c2-.5,2.5-1.4,3-5.4s1-4.9,2.9-5.2c1.8-.2,2.4-1.2,3.1-5.6.7-3.9,1.3-5.2,2.6-5.2,1.4,0,1.9-1.2,2.5-5.5.6-5,.9-5.5,3.1-5.5,1.7,0,2.4-.5,2.4-2a3.736,3.736,0,0,1,2.4-3.1c1.9-.9,2.6-2.2,3.1-6,.5-3.9,1.1-4.8,2.8-5.1,1.8-.2,2.4-1.3,3.1-5.6.7-4,1.3-5.2,2.7-5.2,1.2,0,1.9-.9,2.1-2.8s.9-2.8,2.4-3c1.8-.3,2.3-1.2,2.8-5.2.6-4.4.9-4.9,3.4-5.2,2.1-.2,2.8-.9,3-3.1.2-1.9.9-2.7,2.2-2.7s2-.8,2.2-2.8c.2-2.1.9-2.8,2.9-3,2.4-.3,2.7-.9,3.3-5.2.5-4,1-4.9,2.9-5.2,1.5-.2,2.3-1.1,2.5-3,.3-2.1.9-2.7,3-3,1.9-.2,2.8-1,3-2.5a2.773,2.773,0,0,1,2.5-2.5c1.5-.2,2.3-1.1,2.5-3,.3-2.1.9-2.7,3-3,1.9-.2,2.8-1,3-2.6a2.236,2.236,0,0,1,2.3-2.2c1.4,0,2.1-.9,2.5-2.9.4-2.1,1.3-3.1,2.8-3.3s2.2-1.1,2.4-3.1c.3-2.1.9-2.7,2.7-2.7,1.7,0,2.5-.6,2.7-2.3.2-1.6,1.1-2.3,3.1-2.5,1.9-.2,2.7-.9,2.7-2.3,0-1.3,1-2.4,3-3,1.9-.7,3-1.8,3-2.9,0-1.3.9-2,2.8-2.2,2.1-.2,2.8-.9,3-3,.3-2.5.8-2.8,5.2-3.4,4-.5,4.9-1,5.2-2.8a2.782,2.782,0,0,1,2.6-2.4c1.3-.2,2.2-1,2.2-2.1a4.206,4.206,0,0,1,4.2-4.1,1.71,1.71,0,0,0,1.8-1.9c0-1.6,1-2.1,5.5-2.6,4.9-.7,5.5-1,5.5-3,0-2.1.6-2.4,5.5-3,4.3-.6,5.5-1.1,5.5-2.5,0-1.9,4.2-3,12.3-3,4.3,0,4.7-.2,4.7-2.5V-264h12.5c12.5,0,12.5,0,12.5,2.4,0,2.1.6,2.4,5.3,3,2.8.3,6.7.6,8.5.6,2.5,0,3.2.4,3.2,2,0,2.9,6,2.9,6.7,0,.4-1.5,1.7-2.1,5.4-2.6,3.9-.5,4.9-1,4.9-2.6a4.024,4.024,0,0,1,2.5-3c1.4-.6,2.5-1.7,2.5-2.5s1.3-1.9,2.9-2.4c2.5-.9,2.9-1.7,3.5-6,.5-4,1-4.9,2.6-4.9,1.8,0,2-.7,2-6.5s-.2-6.5-1.9-6.5c-1.4,0-2.1-.8-2.3-2.8-.2-2.1-.9-2.8-3-3-1.9-.2-2.8-1-3-2.5a2.773,2.773,0,0,0-2.5-2.5,2.288,2.288,0,0,1-2.3-2.6c0-2-.6-2.4-5.2-3-2.9-.3-9-.6-13.5-.6-7.6,0-8.3-.2-8.3-2,0-1.7-.7-2-4-2s-4,.3-4,2c0,1.8-.7,2-8.9,2-4.8,0-10.9.3-13.5.6-4,.6-4.6,1-4.6,3s-.5,2.4-3.2,2.4c-1.8,0-5.7.3-8.5.6-4.1.5-5.3,1.1-5.3,2.4,0,1.8-3.6,3-8.6,3-1.9,0-2.4.5-2.4,2.5,0,2.2-.5,2.5-5.1,3.1-3.8.5-5.3,1.2-5.6,2.5-.4,1.2-1.8,2-4.7,2.4-3.5.6-4.4,1.2-5.3,3.6-.9,2.2-1.8,2.9-3.7,2.9s-2.6.5-2.6,1.9a2.235,2.235,0,0,1-2.2,2.3c-1.6.2-2.4,1.1-2.6,3-.3,2.1-.9,2.7-3,3-1.9.2-2.8,1-3,2.4-.3,2.2-3.5,3.4-8.8,3.4-1.9,0-2.4.5-2.4,2.4,0,1.8-.6,2.5-2.2,2.8a2.786,2.786,0,0,0-2.6,2.5c-.2,1.5-1.1,2.3-3,2.5-2.1.2-2.8.9-3,3-.2,1.9-1,2.8-2.5,3a2.773,2.773,0,0,0-2.5,2.5c-.3,2-.9,2.3-4.6,2.3-4.2,0-4.4-.1-5-3.8a65.189,65.189,0,0,1-.6-8c0-3.8-.2-4.2-2.4-4.2s-2.5-.5-3.1-5.5c-.6-4.4-1.1-5.5-2.5-5.5-1.3,0-2-.9-2.2-2.8-.2-2.1-.9-2.8-3-3-1.9-.2-2.8-1-3-2.5a2.773,2.773,0,0,0-2.5-2.5c-1.5-.2-2.3-1.1-2.5-3-.2-2.1-.9-2.8-3-3-1.9-.2-2.8-.9-2.8-2.2,0-1.5-1.1-1.9-5.9-2.5a55.253,55.253,0,0,0-11.5,0c-4.5.6-5.6,1.1-5.6,2.5,0,1.3-.9,2-2.7,2.2l-2.8.3v22c-.1,32-.1,32.5-2.5,32.5-1.4,0-2,.7-2,2.4,0,5.8-1.2,8.6-3.6,8.6-1.9,0-2.4.5-2.4,2.4,0,4.7-1.2,8.4-3,8.9-1.3.3-2,1.9-2.5,5.5-.6,4.6-1,5.1-3.3,5.4-1.9.2-2.8,1-3,2.5a2.774,2.774,0,0,1-2.5,2.5c-1.5.2-2.3,1.1-2.5,3-.3,2.1-.9,2.7-3,3-1.9.2-2.8,1-3,2.5a2.774,2.774,0,0,1-2.5,2.5c-1.5.2-2.3,1.1-2.5,3-.3,2.4-.8,2.7-5.8,3.4-4.3.5-5.4,1-5.4,2.4,0,1.3-.9,2-2.7,2.2-2.2.2-2.9.9-3.1,3-.3,2.6-.7,2.8-4.7,2.8-3.8,0-4.6.4-5.7,2.7a5.428,5.428,0,0,1-3.6,3.1c-1.5.2-2.2,1-2.2,2.7,0,2-.6,2.4-5.1,3-3.8.5-5.3,1.2-5.6,2.6a3.509,3.509,0,0,1-2.7,2.1c-1.4.2-2.2,1.1-2.4,3-.3,2.4-.8,2.7-5.8,3.4-4.3.5-5.4,1-5.4,2.4,0,1.3-.9,2-2.7,2.2-2.2.2-2.9.9-3.1,3-.3,2.5-.7,2.8-4,2.8-6.9,0-11.4,1.2-11.9,3.1-.4,1.3-1.9,2-5.9,2.5-4.8.6-5.4.9-5.4,2.9s-.7,2.4-5.1,3c-3.8.5-5.3,1.2-5.6,2.6-.4,1.3-1.9,2-5.9,2.5-4.2.5-5.4,1-5.4,2.4,0,1.9-4.2,3-12.2,3-4.4,0-4.8.2-4.8,2.4,0,1.9-.6,2.4-3.7,3a68.339,68.339,0,0,1-8,.6c-3.5,0-4.3.3-4.3,1.9s-1.1,1.9-9.2,2.5c-5,.3-12.4.6-16.5.6-7.1,0-7.3.1-7.3,2.5s-.2,2.5-7,2.5c-6.7,0-7-.1-7-2.4,0-2.1-.6-2.4-5.1-2.9a36.666,36.666,0,0,1-5.6-1,36.663,36.663,0,0,1-1-5.6c-.5-4.5-.8-5.1-2.9-5.1-1.5,0-2.4-.6-2.4-1.5s.9-1.5,2.5-1.5c2.2,0,2.5-.5,2.5-3.3,0-4.9,1-7.6,3-8.2,1.3-.4,2-2,2.5-5.5l.7-4.9,5.4-.7c4.2-.5,5.4-1,5.4-2.4,0-1.9,4.2-3,12.3-3,4.3,0,4.7-.2,4.7-2.4,0-2.3.3-2.4,10.6-3.1,9-.6,10.7-1,11.1-2.5.5-1.8,4.2-3,8.9-3,1.9,0,2.4-.5,2.4-2.4,0-2.6,2.8-3.6,10.6-3.6,3.2,0,4.4-.4,4.4-1.5,0-2,3.2-3.5,7.4-3.5,3,0,3.7-.4,4.2-2.5s1.4-2.6,5.4-3.1,5-1,5.2-2.8c.2-1.5,1.1-2.2,3.1-2.4,2.1-.3,2.7-.9,2.7-2.7,0-2.1.6-2.4,5.5-3,4.4-.6,5.5-1.1,5.5-2.5s1.1-2,4.9-2.5c4.4-.6,5-1,5.3-3.3.2-2.2.9-2.8,3.6-3,2.4-.2,3.2-.8,3.2-2.2,0-1.6,1-2.1,4.9-2.6l4.9-.6.6-4.8c.5-4,1-4.9,2.9-5.2a2.773,2.773,0,0,0,2.5-2.5c.2-1.5,1.1-2.3,3-2.5,2.1-.2,2.8-.9,3-2.9a3.644,3.644,0,0,1,2.2-3.2,3.458,3.458,0,0,0,2.2-2.8,2.891,2.891,0,0,1,2.4-2.7c1.9-.3,2.2-1.1,2.7-8.9a153.226,153.226,0,0,0,0-16.6c-.5-6.5-.9-8.1-2.4-8.4a3.509,3.509,0,0,1-2.1-2.7,5.036,5.036,0,0,0-2.5-3.1,4.706,4.706,0,0,1-2.6-2.6c-.3-1.1-2-1.8-5.6-2.3-4.6-.6-5.1-.9-5.1-3.1V-276h-30v2.5c0,2.2-.4,2.5-3.4,2.5-1.8,0-5.4.3-8,.6-3.6.5-4.6,1.1-4.6,2.5,0,1.5-.7,1.9-3.2,1.9-1.8,0-5.7.3-8.5.6-4.6.6-5.3,1-5.3,2.9,0,2.3-3,3.5-8.6,3.5-1.7,0-2.4.6-2.4,2,0,1.5-.7,2-2.9,2-6.9,0-12.1,1.3-12.1,2.9a4.206,4.206,0,0,1-4.2,4.1,1.71,1.71,0,0,0-1.8,1.9c0,1.6-1,2.1-5.5,2.6-4.9.7-5.5,1-5.5,3,0,2.1-.6,2.4-5.5,3-4.4.6-5.5,1.1-5.5,2.5,0,1.5-1.1,2-5.5,2.5-4.9.7-5.5,1-5.5,3,0,1.8-.6,2.4-2.7,2.7-2,.2-2.9.9-3.1,2.5-.3,1.9-1.2,2.4-5.3,2.9-3.6.5-4.9,1.1-4.9,2.3a4.206,4.206,0,0,1-4.2,4.1,1.71,1.71,0,0,0-1.8,1.9c0,1.4-.8,2.1-2.7,2.3-2,.2-2.9.9-3.1,2.5-.3,1.9-1.2,2.4-5.1,2.9-4.1.5-4.9,1-5.8,3.5-.8,1.9-1.8,2.9-3.2,2.9s-2.1.6-2.1,1.9a2.236,2.236,0,0,1-2.2,2.3c-1.6.2-2.4,1.1-2.6,3-.3,2.3-.8,2.7-5.4,3.3-3.7.5-5.2,1.2-5.5,2.6a3.743,3.743,0,0,1-3.2,2.1c-2,.2-2.7.9-2.9,2.9-.3,2.7-3,3.9-8.8,3.9-1.7,0-2.4.6-2.4,1.9a2.236,2.236,0,0,1-2.2,2.3c-1.6.2-2.4,1.1-2.6,2.9-.3,2.4-.8,2.7-5.8,3.4-4.4.5-5.4,1-5.4,2.5,0,1.3-.8,2-2.7,2.2-2.2.2-2.9.9-3.1,2.9-.3,2.7-3,3.9-8.8,3.9-1.7,0-2.4.6-2.4,1.9a2.236,2.236,0,0,1-2.2,2.3c-1.6.2-2.4,1.1-2.6,3-.3,2.4-.8,2.7-5.8,3.4-4.3.5-5.4,1-5.4,2.4,0,1.5-1.1,2-5.5,2.5-4.8.6-5.5,1-5.5,3,0,2.3-2.9,3.5-8.6,3.5-1.7,0-2.4.6-2.4,1.9,0,1.9-3.4,3.1-8.6,3.1-1.9,0-2.4.5-2.4,2.5,0,2.2-.4,2.5-3.4,2.5-7.6,0-12.6,1.2-12.6,3.1,0,1.4-1.1,1.9-5.5,2.4-4.3.6-5.5,1.1-5.5,2.5,0,1.5-1.3,1.8-9.9,2.2a89.733,89.733,0,0,1-13,0c-2.9-.4-3.1-.7-3.1-4.3,0-3.5.3-3.9,2.4-3.9,2.3,0,2.5-.4,2.8-5.3.2-4.3.7-5.4,2.6-6.2a3.546,3.546,0,0,0,2.2-3.5q0-6.75,3.3-7.2c1.8-.2,2.3-1.3,3-5.6.7-4.2,1.2-5.2,2.8-5.2,1.4,0,1.9-.7,1.9-2.6s.7-2.8,2.9-3.5c2.5-.9,3-1.7,3.6-6,.5-3.8,1.1-4.9,2.5-4.9,1,0,2-1,2.4-2.4a4.319,4.319,0,0,1,3-3c1.8-.4,2.6-1.4,2.8-3.4.2-1.9.9-2.8,2.6-3,1.6-.3,2.2-1,2.2-2.8,0-2,.5-2.4,2.9-2.4,2.7,0,2.9-.3,3.5-4.9.5-4.1,1-5,2.9-5.3,1.6-.2,2.3-1.1,2.5-3.1.3-2.1.9-2.7,2.7-2.7s2.6-.7,3.1-2.4a4.219,4.219,0,0,1,2.4-2.9,3.613,3.613,0,0,0,2.2-2.8c.2-1.8,1-2.5,3-2.7,2.1-.3,2.7-.9,3-3,.2-1.9,1-2.8,2.6-3,1.6-.3,2.2-1,2.2-2.8,0-1.9.5-2.4,2.5-2.4,2.1,0,2.5-.5,2.5-3,0-2.7.3-3,3-3,2.5,0,3-.4,3-2.5,0-2,.5-2.5,2.5-2.5,2.1,0,2.5-.5,2.5-3,0-2.7.3-3,3-3h3v-8.5c0-8.3,0-8.5-2.4-8.5-1.9,0-2.5-.6-2.8-2.8-.3-2.5-.7-2.7-5.5-3-4.5-.3-5.3-.6-5.3-2.3s-.7-1.9-9-1.9c-8.2,0-9,.2-9,1.9s-1.1,2-11,2.6c-10.5.7-11,.9-11,3,0,2.3-3,3.5-8.6,3.5-1.7,0-2.4.6-2.4,1.9a2.236,2.236,0,0,1-2.2,2.3c-1.6.2-2.4,1.1-2.6,2.9-.3,2.3-.9,2.7-5,3.3-3.6.5-5,1.1-5.7,2.9a4.788,4.788,0,0,1-3.7,2.5c-2.2.3-2.8.9-2.8,2.6a2.605,2.605,0,0,1-2.1,2.9,4.2,4.2,0,0,0-2.6,2.6c-.3,1.1-1.8,2.4-3.4,3-1.9.6-2.9,1.7-2.9,3a3.061,3.061,0,0,1-1.9,2.6c-1.4.4-2.1,1.9-2.6,5.5-.6,4.4-1,5-3.1,5q-2.4,0-2.4,1.8a4.225,4.225,0,0,1-4.2,4.2,1.71,1.71,0,0,0-1.8,1.9,2.236,2.236,0,0,1-2.2,2.3c-1.6.2-2.4,1.1-2.6,3-.3,2.1-.9,2.7-3,3-1.9.2-2.8,1-3,2.5a2.774,2.774,0,0,1-2.5,2.5c-1.5.2-2.3,1.1-2.5,3-.3,2.1-.9,2.7-3,3-1.9.2-2.8,1-3,2.5-.3,1.9-1.2,2.4-5.2,2.9-4.3.6-4.9.9-5.2,3.3-.2,1.7-1,2.7-2.3,2.9a4.623,4.623,0,0,0-3,2.5,4.788,4.788,0,0,1-3.7,2.5c-2.2.3-2.8.9-2.8,2.7,0,1.7-.6,2.5-2.2,2.7a2.875,2.875,0,0,0-2.6,2.4c-.2,1.7-1.3,2.3-5.5,3s-5.3,1.3-5.5,3c-.2,1.5-1.2,2.4-3.3,2.8-2,.4-2.9,1.1-2.9,2.5a2.236,2.236,0,0,1-2.2,2.3c-1.6.2-2.4,1.1-2.6,3-.3,2.4-.8,2.7-5.8,3.4-4.3.5-5.4,1-5.4,2.4,0,1.5-1.1,2-5.5,2.5-4.9.7-5.5,1-5.5,3,0,2.1-.6,2.4-5.5,3-4.3.6-5.5,1.1-5.5,2.5,0,1.8-3.5,3-8.6,3-1.9,0-2.4.5-2.4,2.4s-.6,2.4-3.7,3a68.339,68.339,0,0,1-8,.6c-3.5,0-4.3.3-4.3,1.9s-1.2,1.9-10.9,2.4c-6.1.3-14.4.3-18.5,0-6.5-.5-7.6-.9-7.6-2.4,0-1.4-.7-1.9-3-1.9-2.6,0-3-.3-3-2.9,0-2.3-.6-3.1-3-4l-3-1v-24.8c0-29.6.3-32.3,3.6-32.3,2.3,0,2.4-.3,2.4-6.8,0-3.7.3-9.7.7-13.5.5-5.6.9-6.7,2.4-6.7,1.7,0,1.9-.8,1.9-6.5s-.2-6.5-1.9-6.5c-1.4,0-2-1-2.5-4.6-.3-2.6-.6-6.4-.6-8.5,0-3.5-.3-3.9-2.4-3.9-1.8,0-2.5-.6-2.8-2.3a2.773,2.773,0,0,0-2.5-2.5c-1.6-.2-2.3-1-2.3-2.7,0-2.5-2.2-3.5-7.7-3.5-2.6,0-3.3-.4-3.3-1.9a2.828,2.828,0,0,0-2.2-2.5c-3-.8-23.2-.8-34.6,0-7.9.6-9.2.9-9.2,2.5,0,1.8-2.6,2.5-12,3.1-2.7.2-3.6.8-3.8,2.5-.2,1.5-1.1,2.3-3,2.5s-2.8,1-3,2.4c-.3,2.2-3.5,3.4-8.8,3.4-1.9,0-2.4.5-2.4,2.5,0,2.2-.5,2.5-4.8,3.1-3.6.4-5.1,1.1-5.8,2.8a4.707,4.707,0,0,1-3.1,2.4c-1.7.2-2.3,1-2.3,2.7,0,2.1-.6,2.5-4.8,3.1-3.6.4-5.1,1.1-5.8,2.8a4.707,4.707,0,0,1-3.1,2.4c-1.7.2-2.3,1-2.3,2.7,0,2.1-.6,2.4-5.5,3-4.4.6-5.5,1.1-5.5,2.5s-1.1,2-5.1,2.5c-3.8.5-5.3,1.2-5.6,2.5-.3,1.1-1.8,2.3-3.4,2.9-1.9.7-2.9,1.7-2.9,3,0,1.8-.6,2.1-4.5,2.1H882v-4.5c0-4.1.2-4.5,2.5-4.5s2.5-.4,2.5-4.3c0-7.7,1.1-11.7,3.1-11.7,1.8,0,1.9-1.3,1.9-26,0-24.8-.1-26-1.9-26-1.9,0-3.1-3.4-3.1-8.6,0-1.9-.5-2.4-2.5-2.4-2.2,0-2.5-.5-3.1-4.9-.5-4.1-1-5-2.8-5.3a2.76,2.76,0,0,1-2.4-2.4c-.2-1.5-1.2-2.4-3.3-2.8-2.2-.4-2.9-1.1-2.9-3,0-2.1-.6-2.5-5-3.1-3.9-.5-5-1.1-5-2.5,0-1.6-1.4-1.9-12.2-2.5-17.4-1-21.2-.6-21.6,2.2a2.288,2.288,0,0,1-2.6,2.3c-2,0-2.4.6-2.9,4.8-.9,7.5.2,13.2,2.5,13.2a3.629,3.629,0,0,1,2.8,2.4,4.479,4.479,0,0,0,3.2,2.8c1.7.2,2.4,1.1,2.8,3.3.4,2.1,1.2,3.1,2.6,3.3,2.7.4,3.4,3.5,3.4,15.1,0,12.7-.8,16.1-3.5,16.1-2,0-2.4.7-3,5.5-.5,4.4-1,5.5-2.4,5.5-1.9,0-3.1,5-3.1,12.6,0,2.8-.4,3.3-2.7,3.6-2.2.2-2.9.9-3.1,3-.2,1.9-.9,2.8-2.2,2.8-2.1,0-3,1.9-3,6.5,0,2.9-.4,3.4-2.7,3.7-2.2.2-2.9.9-3.1,3-.2,1.9-1,2.8-2.5,3a2.773,2.773,0,0,0-2.5,2.5c-.2,1.5-1.1,2.3-3,2.5-2.1.2-2.8.9-3,3-.2,1.9-1,2.8-2.5,3a2.773,2.773,0,0,0-2.5,2.5c-.3,1.7-1.2,2.3-5.1,2.8-4,.5-4.9,1.1-5.8,3.6-.9,2.2-1.8,2.9-3.7,2.9s-2.6.5-2.6,1.9a2.236,2.236,0,0,1-2.2,2.3c-1.6.2-2.4,1.1-2.6,3-.3,2.1-.9,2.7-3,3-1.9.2-2.8,1-3,2.4-.3,2.2-3.5,3.4-8.8,3.4-1.9,0-2.4.5-2.4,2.5,0,2.2-.5,2.5-5,3.1-3.9.5-5,1.1-5,2.5q0,1.8-2.7,2.1c-2.2.2-2.9.9-3.1,2.9-.3,2.7-3,3.9-8.8,3.9-1.7,0-2.4.6-2.4,1.9,0,1.9-3.4,3.1-8.6,3.1-1.9,0-2.4.5-2.4,2.4,0,2.4-2.8,3.6-8.6,3.6-1.7,0-2.4.6-2.4,1.9,0,1.9-3.4,3.1-8.6,3.1-1.9,0-2.4.5-2.4,2.4,0,2.8-3.2,3.6-14.7,3.6-6.5,0-7.3.2-7.3,1.9,0,1.6-.9,1.9-6.2,2.3-3.5.2-10.2.2-15,0-7.7-.4-8.8-.6-8.8-2.2,0-1.4-.9-2-3.2-2.2-2.8-.3-3.4-.7-3.6-3.2a3.677,3.677,0,0,0-2.2-3.3c-2.3-.6-3-4.3-3-15.2,0-11.7.8-15.8,3.1-16.4,1.5-.4,1.9-1.4,1.9-5,0-7.9,1-10.7,3.6-10.7,2.3,0,2.4-.3,2.4-6.5s-.1-6.5-2.4-6.5c-2.1,0-2.5-.6-3.1-5.1-.5-3.8-1.2-5.3-2.6-5.6a4.478,4.478,0,0,1-2.5-2.7,6.781,6.781,0,0,0-1.8-2.8c-1.4-.9-21.6-1-28-.2-3.9.6-4.6,1-4.6,2.9,0,2-.7,2.4-5.1,3-3.9.6-5.3,1.2-5.7,2.7a4.278,4.278,0,0,1-3.3,2.5c-2.2.4-2.9,1.1-2.9,2.9a2.27,2.27,0,0,1-2.2,2.6,2.786,2.786,0,0,0-2.6,2.5c-.3,1.7-1.2,2.3-5.3,2.8-3.7.5-4.9,1.1-4.9,2.4,0,2.4-2,4.1-4.7,4.1-1.6,0-2.3.6-2.3,1.9a2.236,2.236,0,0,1-2.2,2.3c-1.6.2-2.4,1.1-2.6,3s-1,2.8-2.5,3a2.773,2.773,0,0,0-2.5,2.5c-.3,1.7-1.2,2.3-5.2,2.8-4.3.6-4.9,1-5.2,3.3-.2,2-.9,2.8-2.8,3a4.45,4.45,0,0,0-3.5,2.5,4.963,4.963,0,0,1-3.2,2.5c-1.7.2-2.3,1-2.3,2.7,0,1.8-.6,2.4-2.7,2.7-2,.2-2.9.9-3.1,2.4-.3,1.8-1.2,2.3-5.8,2.9-4.8.6-5.4.9-5.4,3,0,2.2-.6,2.5-4.9,3.1-4,.5-5.1,1-5.3,2.7A3.534,3.534,0,0,1,495-128a3.534,3.534,0,0,0-2.8,2.7q-.3,2.1-3.3,2.7c-2,.4-2.9,1.1-2.9,2.5,0,1.7-.9,2.1-4.8,2.7-3.6.4-5.1,1.1-5.8,2.8a4.707,4.707,0,0,1-3.1,2.4c-1.7.3-2.3,1-2.3,2.8,0,2.1-.4,2.4-3.9,2.4-5.2,0-7.1.8-7.1,3.1,0,1.7-.8,1.9-7,1.9-5.6,0-7-.3-7-1.5a1.79,1.79,0,0,1,1.9-1.5c2.3,0,3.1-1.9,3.1-7.1,0-3.4.3-3.9,2.4-3.9a2.7,2.7,0,0,0,3-2.4,4.452,4.452,0,0,1,2.5-3.1c1.3-.4,2-1.9,2.5-5.5.5-4,1-4.9,2.9-5.2,1.5-.2,2.3-1.1,2.5-3,.3-2.1.9-2.7,3-3,1.9-.2,2.8-1,3-2.6.2-1.4,1-2.2,2.2-2.2s2.1-1,2.5-3c.5-2.1,1.3-3,2.6-3a3.933,3.933,0,0,0,3-2.4,6,6,0,0,1,3.5-3c1.7-.5,2.4-1.3,2.4-3.1s.6-2.4,2.8-2.7c1.9-.2,2.8-.9,3-2.5.3-1.9,1.2-2.4,5.2-2.9,4.3-.6,4.9-.9,5.2-3.3.2-1.8,1-2.7,2.5-2.9a2.866,2.866,0,0,0,2.5-2.5c.2-1.5,1.2-2.3,3.3-2.7s3.1-1.2,3.3-2.7c.3-1.9,1.2-2.4,5.3-2.9,4.3-.6,4.9-.9,4.9-3,0-2,.5-2.4,3-2.4s3-.4,3-2.4c0-2.1.6-2.5,4.9-3.1,4.1-.5,5-1.1,5.3-2.8.2-1.7,1.1-2.3,3.6-2.5,2.6-.3,3.2-.7,3.2-2.7,0-2.2.6-2.5,5-3.1,3.8-.5,5-1.1,5-2.4,0-1.9,4.2-3,11.8-3,3.8,0,4.2-.2,4.2-2.5,0-2.2.4-2.4,5.8-2.7,4.9-.3,5.7-.6,6-2.4.4-2.5,3.5-3.4,11.3-3.4,4.1,0,4.9-.3,4.9-1.9s1-1.9,6.3-2.3a132.682,132.682,0,0,1,15.5,0c8.1.4,9.2.7,9.2,2.3,0,1.3.7,1.9,2.4,1.9,5.8,0,8.5,1.2,8.8,3.9.2,1.8,1,2.7,2.6,2.9a2.236,2.236,0,0,1,2.2,2.3c0,1.7.8,1.9,9.1,1.9,8.1,0,9.1-.2,9.6-1.9a4.11,4.11,0,0,1,2.9-2.5c1.7-.5,2.4-1.3,2.4-3.1,0-2,.5-2.5,2.4-2.5,2.1,0,2.4-.6,3.1-5.5a80.066,80.066,0,0,0,0-12c-.7-5.9-.9-6.5-3-6.5-1.7,0-2.5-.7-2.7-2.3a2.773,2.773,0,0,0-2.5-2.5c-1.7-.3-2.3-1-2.3-2.8,0-1.9-.5-2.4-2.4-2.4-5,0-8.6-1.2-8.6-3,0-1.4-1.4-1.8-9.2-2.4-11.7-.8-37.9-.8-49.6,0-8.1.6-9.2.9-9.2,2.5s-.8,1.9-5.7,1.9c-3.2,0-8.2.3-11,.6-4.7.6-5.3.9-5.3,3s-.5,2.4-3.4,2.4c-1.8,0-5.4.3-8,.6-3.6.5-4.6,1.1-4.6,2.5,0,1.5-.7,1.9-3.4,1.9-1.8,0-5.4.3-8,.6-3.9.6-4.6,1-4.6,3s-.6,2.3-5.5,2.9c-4.4.6-5.5,1.1-5.5,2.5,0,1.8-1.7,2.2-13.5,3.2-2.2.2-3.1.9-3.3,2.4-.3,2.3-2.7,3.4-7.5,3.4-2,0-3,.6-3.4,2-.4,1.5-1.7,2.1-5.4,2.6s-4.9,1.1-4.9,2.3a4.206,4.206,0,0,1-4.2,4.1c-1.1,0-1.8.7-1.8,2,0,1.7-.7,2-3.9,2-5.1,0-7.1.8-7.1,3,0,1.3-1.3,1.9-5.2,2.6-4.4.7-5.4,1.3-5.6,3.1a3.505,3.505,0,0,1-2.8,2.9c-1.4.4-2.4,1.3-2.4,2.4,0,1.4-1.1,2-4.9,2.5-4.4.6-5,1-5.3,3.3-.2,2.1-.9,2.8-3.2,3a3.677,3.677,0,0,0-3.3,2.2,4.219,4.219,0,0,1-2.9,2.4c-1.7.5-2.4,1.3-2.4,3,0,2.1-.6,2.5-4.9,3.1-3.8.5-5.1,1.2-6,3.1a3.662,3.662,0,0,1-3.6,2.4c-2,0-2.5.5-2.5,2.4,0,1.8-.6,2.5-2.2,2.8a2.786,2.786,0,0,0-2.6,2.5c-.2,1.5-1.1,2.3-3,2.5-2.1.2-2.8.9-3,2.9-.3,2.7-3,3.9-8.8,3.9-1.7,0-2.4.6-2.4,1.9,0,1.9-3.4,3.1-8.6,3.1-1.9,0-2.4.5-2.4,2.4,0,1.8-.6,2.5-2.2,2.8a2.786,2.786,0,0,0-2.6,2.5c-.3,1.9-1,2.3-3.6,2.3-1.8,0-5.4.3-8,.6-3.9.6-4.6,1-4.6,3s-.6,2.3-5.5,2.9c-4.4.6-5.5,1.1-5.5,2.5,0,1.5-1.1,2-5.5,2.5-4.9.7-5.5,1-5.5,3,0,2.2-.4,2.4-11,3-9.8.7-11,1-11,2.6,0,1.7-.8,1.9-7.5,1.9s-7.5-.2-7.5-1.9a2.952,2.952,0,0,0-2.2-2.7c-3.2-1-3.8-2.2-3.8-8.5,0-8.1.9-11.6,3.1-12.2,1.5-.4,1.9-1.4,1.9-4.9a66.727,66.727,0,0,1,.6-8c.5-3.1,1.1-3.8,2.9-3.8,2,0,2.4-.7,3-5.5.5-4.5,1-5.5,2.6-5.5a2.822,2.822,0,0,0,2.5-2.4,3.407,3.407,0,0,1,2.7-2.8c1.8-.2,2.3-1.3,3-5.5s1.2-5.3,2.7-5.3c1.4,0,2-.9,2.2-3.3.2-2.6.8-3.3,3-3.5,2.3-.3,2.7-.9,3.3-5.2.5-4,1.1-4.9,2.8-5.2a2.773,2.773,0,0,0,2.5-2.5,2.866,2.866,0,0,1,2.5-2.5A3.4,3.4,0,0,0,340-212a3.534,3.534,0,0,1,2.7-2.8c1.7-.2,2.2-1.3,2.7-5.3.6-4.3.9-4.9,3.1-4.9,1.8,0,2.4-.6,2.7-2.8a4.788,4.788,0,0,1,2.5-3.7c1.6-.7,2.3-2.1,2.8-5.7.6-4.1,1-4.7,3.3-5,1.9-.2,2.8-1,3-2.6a2.236,2.236,0,0,1,2.3-2.2c1.4,0,2.1-.9,2.5-2.9.4-1.6,1.4-3.1,2.4-3.4,1.3-.3,2-1.9,2.5-5.5l.7-5,4.8-.7,4.8-.7.7-4.9c.6-4.2,1-4.9,3-4.9a2.664,2.664,0,0,0,2.9-2.4,4.368,4.368,0,0,1,2.6-3.1c1.4-.4,2-1.5,2-3.6,0-2.5.4-2.9,2.9-2.9,2.7,0,3-.3,3.6-4.9.5-4.1,1.1-5,2.8-5.3a2.786,2.786,0,0,0,2.5-2.6c.2-1.6,1-2.2,2.7-2.2,1.9,0,2.4-.6,2.7-3.3.2-2.4.8-3.3,2.4-3.5,1.7-.2,2.3-1.2,2.8-4.7.6-3.8,1.1-4.4,3.4-4.7,2.1-.2,2.8-.9,3-3.1.2-1.9.9-2.7,2.3-2.7,1.2,0,1.9-.7,1.9-2.1,0-1.3,1-2.3,2.9-3,2.2-.8,3.1-1.8,3.3-3.7s1-2.8,2.5-3a2.773,2.773,0,0,0,2.5-2.5c.2-1.6,1.1-2.3,3.1-2.5,2.3-.3,2.7-.8,2.7-3.3,0-2.4.4-2.9,2.4-2.9,1.8,0,2.5-.6,2.8-2.3.2-1.5,1.1-2.3,3-2.5,2.1-.3,2.7-.9,3-3,.2-1.9,1-2.8,2.6-3,1.2-.2,2.2-1,2.2-1.9,0-.8,1.4-2,3-2.6,2.1-.8,3-1.8,3-3.3,0-1.9.7-2.3,5-2.9,4.4-.6,5-1,5-3.1,0-2.2.4-2.4,5.4-2.4h5.3l.7-5c.6-4.5.9-5,3.1-5,2.4,0,2.5-.3,2.5-6.5s-.1-6.5-2.4-6.5c-1.9,0-2.5-.6-2.8-2.8-.2-1.9-.9-2.8-2.5-3-1.5-.2-2.3-1-2.3-2.3,0-1.7-.8-1.9-9.5-1.9S464-406.8,464-405.1ZM258.9-225.4c2.9.6,3.1.9,3.1,5,0,3.7-.3,4.3-2.2,4.6a2.786,2.786,0,0,0-2.6,2.5,2.866,2.866,0,0,1-2.5,2.5A3.4,3.4,0,0,0,252-208a3.391,3.391,0,0,1-2.8,2.8c-1.3.2-2.2,1-2.2,2.1a4.229,4.229,0,0,1-4.3,4.1,2.755,2.755,0,0,0-2.4,2,4.234,4.234,0,0,1-2.9,2.6,2.664,2.664,0,0,0-2.4,2.9c0,1.8-.6,2.4-2.7,2.7-2,.2-2.9.9-3.1,2.5a2.773,2.773,0,0,1-2.5,2.5c-1.5.2-2.3,1.1-2.5,3-.3,2.1-.9,2.7-3,3-1.9.2-2.8,1-3,2.5a2.773,2.773,0,0,1-2.5,2.5c-1.5.2-2.3,1.1-2.5,3-.3,2.3-.9,2.7-5,3.3-3.6.5-5,1.2-5.7,2.8A5.646,5.646,0,0,1,199-161a3.4,3.4,0,0,0-2.8,2.7,2.866,2.866,0,0,1-2.5,2.5,2.773,2.773,0,0,0-2.5,2.5c-.2,1.5-1.1,2.3-3,2.5-2.1.2-2.8.9-3,3-.2,1.9-1,2.8-2.5,3a2.773,2.773,0,0,0-2.5,2.5c-.2,1.5-1.1,2.3-3,2.5-2.1.2-2.8.9-3,3-.3,2.4-.9,2.8-4.9,3.4-3.1.5-4.7,1.2-5,2.4-.3,1-1.8,2-3.4,2.4-2.3.4-2.9,1.1-2.9,3,0,1.8-.6,2.5-2.2,2.8a2.786,2.786,0,0,0-2.6,2.5c-.3,1.7-1.2,2.3-5.4,2.8-3.8.6-5.2,1.2-5.6,2.7a4.278,4.278,0,0,1-3.3,2.5c-2.2.4-2.9,1.1-2.9,2.8,0,2.3-2.9,3.5-8.6,3.5-1.7,0-2.4.6-2.4,1.9,0,1.9-3.4,3.1-8.6,3.1-1.9,0-2.4.5-2.4,2.5,0,2.3-.4,2.5-4.5,2.5-3.8,0-4.5-.3-4.5-2,0-1.5.7-2,2.5-2,2.3,0,2.5-.3,2.5-4.9,0-7.5,1-11.1,3-11.1,1.4,0,1.9-1.2,2.5-5.5.6-4.9.9-5.5,3-5.5,1.8,0,2.4-.6,2.7-2.8.2-1.9.9-2.8,2.4-3,1.8-.3,2.3-1.2,2.8-5.2.6-4.4.9-4.9,3.4-5.2,2.1-.2,2.8-.9,3-3.1.2-1.9.9-2.7,2.2-2.7s2-.8,2.2-2.8c.2-2.1.9-2.8,3-3,2.1-.3,2.7-.9,3-3,.2-1.8,1-2.8,2.3-3a4.623,4.623,0,0,0,3-2.5,4.912,4.912,0,0,1,3.3-2.5,2.236,2.236,0,0,0,2.2-2.3c0-1.1,1.1-2.4,2.5-3.1,1.4-.6,2.5-1.7,2.5-2.5s1.3-1.9,2.9-2.4c1.9-.7,3.1-1.9,3.3-3.2a5.5,5.5,0,0,1,3.1-3.5c1.5-.7,2.7-1.9,2.7-2.7,0-1,1.7-1.7,5-2.1,4.7-.6,5-.8,5-3.5,0-2.4.4-2.9,2.4-2.9,1.8,0,2.5-.6,2.8-2.2.2-1.7,1.2-2.4,3.3-2.8s3.1-1.2,3.3-2.7c.3-1.9,1.2-2.4,5.4-2.9,3.7-.5,5.2-1.2,5.5-2.5.4-1.4,1.8-2,5.4-2.5,3.9-.5,4.9-1,4.9-2.6,0-1.3.9-2,3-2.5,2.3-.4,3-1.1,3-2.8,0-1.8.7-2.4,3.8-2.9a66.727,66.727,0,0,1,8-.6c3.5,0,4.5-.4,4.9-2s1.6-2,7.2-2.3c3.6-.2,7.8-.4,9.2-.5A29.289,29.289,0,0,1,258.9-225.4ZM1542-223.5a1.538,1.538,0,0,1-1.5,1.5,1.538,1.538,0,0,1-1.5-1.5,1.538,1.538,0,0,1,1.5-1.5A1.538,1.538,0,0,1,1542-223.5Zm-5,5.5a1.8,1.8,0,0,1-2,2,1.8,1.8,0,0,1-2-2,1.8,1.8,0,0,1,2-2A1.8,1.8,0,0,1,1537-218Zm-17,10.5a1.538,1.538,0,0,1-1.5,1.5,1.538,1.538,0,0,1-1.5-1.5,1.538,1.538,0,0,1,1.5-1.5A1.538,1.538,0,0,1,1520-207.5Zm-11,5.5c0,1.1-.7,2-1.5,2s-1.5-.9-1.5-2,.7-2,1.5-2S1509-203.1,1509-202Z" fill="#c93635"/>
      <path id="Path_6" data-name="Path 6" d="M1365.6-352.3c-1.6.3-3,1.2-3.3,2.3-.3,1-1.7,2-3.4,2.4-2.3.4-2.9,1.1-2.9,3,0,1.8-.6,2.5-2.2,2.8a2.786,2.786,0,0,0-2.6,2.5c-.3,1.7-1,2.3-2.8,2.3-1.9,0-2.4.5-2.4,2.4,0,5.2-1.2,8.6-3.1,8.6-1.7,0-1.9.9-1.9,9,0,8.3.1,9,2,9,1.4,0,2,.7,2,2.4,0,2.1.6,2.4,5.5,3.1,4.5.5,5.5,1,5.5,2.6,0,1.8.8,1.9,12,1.9,11.1,0,12-.1,12-1.9,0-1.5,1-2,5-2.6,4.1-.6,5.1-1.1,5.6-3a3.547,3.547,0,0,1,2.7-2.7,4.823,4.823,0,0,0,3.2-2.6c.5-1.2,1.6-2.2,2.3-2.2s1.7-1.1,2.3-2.4a6,6,0,0,1,3.5-3c2.4-.6,2.4-.9,2.4-12.1V-342h-2.4c-1.9,0-2.5-.6-2.8-2.8-.2-1.9-.9-2.8-2.5-3-1.4-.2-2.3-1-2.3-2.1,0-1.4-1.1-2-4.6-2.5C1387.4-353,1370.4-353,1365.6-352.3Z" fill="#c93635"/>
      <path id="Path_7" data-name="Path 7" d="M1942.7-292.3a3.605,3.605,0,0,0-.7,2.4q0,1.8-2.7,2.1l-2.8.3-.3,10.7c-.2,10-.4,10.8-2.2,10.8-1.7,0-2,.7-2,4.7a69.251,69.251,0,0,1-.6,8.5c-.5,3.1-1.1,3.8-3,3.8a2.27,2.27,0,0,0-2.6,2.2,4.913,4.913,0,0,1-2.5,3.3,4.45,4.45,0,0,0-2.5,3.5c-.2,1.9-1,2.6-3,2.8-2.3.3-2.7.9-3.3,5.2-.5,4-1.1,4.9-2.8,5.2a2.773,2.773,0,0,0-2.5,2.5c-.2,1.5-1.1,2.3-3,2.5-2.1.2-2.8.9-3,3-.2,2-.9,2.8-2.2,2.8a2.829,2.829,0,0,0-2.6,2.4,5.113,5.113,0,0,1-3.5,3.5c-1.6.5-2.9,1.7-2.9,2.5a2.648,2.648,0,0,1-2,2.1c-1.4.4-2,1.5-2,3.6,0,2.5-.4,2.9-2.6,2.9-1.8,0-2.8.6-3.1,2a4.234,4.234,0,0,1-2.9,2.6,3.345,3.345,0,0,0-2.6,3.2c-.2,1.8-1,2.8-2.3,3a4.623,4.623,0,0,0-3,2.5,4.963,4.963,0,0,1-3.2,2.5c-1.5.2-2.3,1.1-2.5,3-.2,1.8-1,2.8-2.3,3a4.623,4.623,0,0,0-3,2.5,4.963,4.963,0,0,1-3.2,2.5,2.773,2.773,0,0,0-2.5,2.5,4.431,4.431,0,0,1-2.4,3.1,7.23,7.23,0,0,0-3,3,4.43,4.43,0,0,1-3.1,2.4c-1.8.3-2.3,1-2.3,3.3,0,2.4-.4,2.9-2.4,2.9-1.8,0-2.5.6-2.8,2.2-.2,1.6-1.1,2.4-2.9,2.6-2.4.3-2.7.9-3.3,5.3-.5,4-1,4.9-2.6,4.9-1.4,0-2,.7-2,2.3,0,2.7-1.7,4.7-4.1,4.7-1.3,0-1.9,1.2-2.4,4.9-.5,4.1-1.1,5-2.8,5.3a2.773,2.773,0,0,0-2.5,2.5c-.2,1.6-1,2.3-2.7,2.3-2,0-2.3.6-3,5.5-.5,4.5-1,5.5-2.6,5.5-1.8,0-1.9.9-1.9,17.5,0,16.7.1,17.5,2,17.5,1.6,0,2.1.9,2.6,4.9.6,4.4.9,5,3.3,5.3,1.8.2,2.7,1,2.9,2.5.3,1.7,1.2,2.3,5.3,2.8,4.2.6,4.9,1,4.9,3s.6,2.3,5.5,3c4.5.5,5.5,1,5.5,2.6,0,1.8,1,1.9,23,1.9,22.2,0,23-.1,23-2,0-1.6.9-2.1,5-2.6,4.3-.6,5-1,5-2.9,0-2.1.6-2.3,8.1-3,6.6-.6,8.2-1.1,8.6-2.5a4.219,4.219,0,0,1,2.9-2.4c1.7-.5,2.4-1.3,2.4-3,0-2.2.5-2.5,5.5-3.1,4.4-.6,5.5-1.1,5.5-2.5s1.1-2,5-2.5c4.7-.6,5-.9,5-3.6,0-2.6.4-2.9,3-2.9,2.1,0,3-.5,3-1.6,0-.9,1.4-2.1,3-2.7,2.1-.8,3-1.8,3-3.3,0-1.9.7-2.3,5-2.9,4.4-.6,5-1,5-3.1,0-2,.5-2.4,3-2.4s3-.4,3-2.5c0-1.8.7-2.6,2.5-3.1a4.4,4.4,0,0,0,3-2.4,4.4,4.4,0,0,1,3-2.4,4.458,4.458,0,0,0,3.1-3,3.994,3.994,0,0,1,3-3,2.829,2.829,0,0,0,2.4-2.6c0-1.6.9-2.1,4.9-2.6,4.1-.5,5-1,5.3-2.8a2.768,2.768,0,0,1,2.5-2.4,3.509,3.509,0,0,0,2.9-2.7,3.547,3.547,0,0,1,2.7-2.7,4.963,4.963,0,0,0,3.2-2.5c1-2.3,7.1-4.1,8.7-2.5.4.4,1.1,3.2,1.5,6,.4,4,1,5.2,2.3,5.2,1.4,0,1.8,1.3,2.4,7.1.7,8.2,1,8.9,3.7,8.9a1.767,1.767,0,0,1,1.9,2,2.829,2.829,0,0,0,2.4,2.6,3.323,3.323,0,0,1,2.8,3.2c.2,2.1.9,2.8,3.1,3,1.9.2,2.7.9,2.7,2.2a2.829,2.829,0,0,0,2.4,2.6,3.408,3.408,0,0,1,2.8,2.7c.2,1.8,1.3,2.3,5.6,3,4.2.7,5.2,1.2,5.2,2.8,0,1.7.8,1.9,7.3,1.9,11.5,0,14.7.8,14.7,3.6V-73h40v-2.5c0-2.3.3-2.5,4.8-2.5,2.7,0,9-.3,14-.6,8.1-.6,9.2-.9,9.2-2.5,0-1.5.8-1.9,3.4-1.9,1.8,0,5.4-.3,8-.6,3.9-.6,4.6-1,4.6-2.9,0-1.8.7-2.4,3.8-2.9a65.025,65.025,0,0,1,7.9-.6c3.6,0,4.2-.3,4.5-2.2.2-1.7,1.1-2.4,3.1-2.6,2.1-.3,2.7-.9,2.7-2.6,0-2.4,2.9-3.6,8.6-3.6,1.7,0,2.4-.6,2.4-2,0-1.6.9-2.1,5-2.6,3.7-.5,5-1.1,5-2.3a4.206,4.206,0,0,1,4.2-4.1,1.71,1.71,0,0,0,1.8-1.9c0-1.5,1-2,4.9-2.6,4.1-.5,5-1.1,5.3-2.8.2-1.5,1.1-2.3,3-2.5,2.1-.3,2.7-.9,3-3,.2-2.1.9-2.8,3.1-3,1.8-.2,2.7-.9,2.7-2.2,0-1.4,1.1-2,5-2.5,4.7-.6,5-.9,5-3.6,0-2.6.4-2.9,3-2.9,2.5,0,3-.4,3-2.5,0-2,.5-2.5,2.5-2.5,2.1,0,2.5-.5,2.5-3,0-2.7.3-3,3-3,2.5,0,3-.4,3-2.5,0-2,.5-2.5,2.4-2.5s2.5-.6,2.8-2.8c.2-2.1.9-2.8,3.1-3,2.1-.3,2.7-.9,2.7-2.8s.5-2.4,2.5-2.4,2.5-.5,2.5-2.5c0-1.8.7-2.6,2.4-3.1a3.407,3.407,0,0,0,2.8-2.7c.2-1.5,1.1-2.3,2.9-2.5,2.4-.3,2.7-.9,3.3-5.3.5-4,1-4.9,2.6-4.9,1.8,0,2-.7,2-6,0-5.5-.2-6-2.4-6.6a3.323,3.323,0,0,1-2.8-3.2c-.3-2.4-.8-2.7-4.3-3a74.6,74.6,0,0,0-11.2.3c-6.8.6-7.3.8-7.3,3,0,1.7-.6,2.5-2.2,2.7a2.786,2.786,0,0,0-2.6,2.5c-.2,1.5-1.1,2.3-3,2.5-2.1.2-2.8.9-3,3-.2,1.9-1,2.8-2.5,3a2.866,2.866,0,0,0-2.5,2.4c-.2,1.7-1.3,2.3-5.5,3s-5.3,1.3-5.5,3c-.2,1.5-1.2,2.4-3.3,2.8-2,.4-2.9,1.1-2.9,2.5a2.236,2.236,0,0,1-2.2,2.3c-1.6.2-2.4,1.1-2.6,3-.3,2.1-.9,2.7-3,3-1.9.2-2.8,1-3,2.5a2.773,2.773,0,0,1-2.5,2.5c-1.5.2-2.3,1.1-2.5,3-.3,2.4-.8,2.7-5.8,3.4-4.3.5-5.4,1-5.4,2.4,0,1.3-.9,2-2.7,2.2-2.2.2-2.9.9-3.1,3-.3,2.5-.8,2.8-5.4,3.4-3.7.5-5.2,1.2-5.5,2.5a3.509,3.509,0,0,1-2.7,2.1c-1.4.2-2.2,1.1-2.4,2.9-.3,2.7-3,3.9-8.8,3.9-1.7,0-2.4.6-2.4,1.9,0,1.9-3.4,3.1-8.6,3.1-1.9,0-2.4.5-2.4,2.4,0,2.4-2.8,3.6-8.6,3.6-1.7,0-2.4.6-2.4,1.9,0,1.7-1.1,2-11,2.6-9.8.7-11,1-11,2.6,0,1.7-.9,1.9-10,1.9-9.2,0-10-.2-10-1.9,0-1.4-.8-2.1-2.7-2.3-2-.2-2.9-.9-3.1-2.5-.2-1.5-1.1-2.3-3-2.5-2.5-.3-2.7-.6-3-6.1-.3-4.9-.6-5.7-2.2-5.7-1.9,0-2-.8-2-10,0-9.3.1-10,2-10,1.8,0,2-.7,2-8.8,0-4.9.3-12.3.6-16.5.7-7.2.8-7.7,3-7.7,1.9,0,2.4-.5,2.4-2.4,0-4.7,1.2-8.4,3-8.9,1.5-.4,1.9-2.1,2.5-11a120.812,120.812,0,0,0,0-17.1c-.6-5.5-1-6.6-2.6-6.6-1.4,0-2-1-2.5-4.9l-.6-4.8-5.2-.7c-6.6-.8-25-.8-27,0a3.2,3.2,0,0,0-1.6,2.9c0,1.7-.7,2.5-2.2,2.7a2.786,2.786,0,0,0-2.6,2.5c-.2,1.5-1.1,2.3-3,2.5-2.1.2-2.8.9-3,3-.2,1.9-1,2.8-2.5,3a2.773,2.773,0,0,0-2.5,2.5c-.2,1.5-1.1,2.3-3,2.5-2.1.2-2.8.9-3,3-.2,1.9-1,2.8-2.5,3a2.773,2.773,0,0,0-2.5,2.5c-.2,1.5-1.1,2.3-3,2.5s-2.8,1-3,2.4a3.619,3.619,0,0,1-2.2,2.7,3.677,3.677,0,0,0-2.2,3.3c-.2,2.2-.9,3-2.8,3.2a4.45,4.45,0,0,0-3.5,2.5,4.963,4.963,0,0,1-3.2,2.5c-1.7.3-2.3,1-2.3,2.8,0,1.9-.5,2.4-2.5,2.4a2.7,2.7,0,0,0-3,2.3,5.869,5.869,0,0,1-2.8,3.2,4.912,4.912,0,0,0-2.5,3.3c-.3,1.6-1.2,2.5-3.3,2.9-1.9.4-2.9,1.2-2.9,2.4,0,1.1-.9,1.9-2.2,2.1-1.6.2-2.4,1.1-2.6,3-.3,2.1-.9,2.7-3,3-1.9.2-2.8,1-3,2.5a2.774,2.774,0,0,1-2.5,2.5c-1.5.2-2.3,1.1-2.5,3s-1,2.8-2.5,3a2.773,2.773,0,0,0-2.5,2.5c-.2,1.5-1.1,2.3-3,2.5-2.1.2-2.8.9-3,3-.2,1.9-1,2.8-2.5,3a2.865,2.865,0,0,0-2.5,2.4c-.2,1.7-1.3,2.3-5.5,3s-5.3,1.3-5.5,3c-.2,1.5-1.2,2.4-3.3,2.8-2,.4-2.9,1.1-2.9,2.5,0,1.7-.9,2.1-4.9,2.7-4.4.6-5,.9-5.3,3.3-.2,2-.9,2.7-3,2.9-2,.2-2.8.9-2.8,2.2s-.8,2-2.7,2.2c-2,.2-2.9.9-3.1,2.5a2.774,2.774,0,0,1-2.5,2.5c-1.5.2-2.3,1.1-2.5,3-.3,2.4-.8,2.7-5.8,3.4-4.3.5-5.4,1-5.4,2.4,0,1.5-1.1,2-5.5,2.5-4.9.7-5.5,1-5.5,3.1s-.5,2.4-3.9,2.4c-5.2,0-7.1.8-7.1,3.1a1.79,1.79,0,0,1-1.5,1.9c-1.1,0-1.5-1.2-1.5-4.4,0-3.4.4-4.5,1.9-4.9,1.4-.3,2.1-1.7,2.6-5.5.5-3.6,1.2-5.1,2.4-5.5,1.3-.3,2-1.8,2.5-5.1.6-4,1-4.6,3.2-4.6,1.9,0,2.4-.5,2.4-2.5a3.831,3.831,0,0,1,2.5-3.7,3.718,3.718,0,0,0,2.5-3.5c0-1.9.5-2.3,2.9-2.3,2.7,0,2.9-.3,3.5-4.9.5-4.1,1-5,2.9-5.3,1.6-.2,2.3-1.1,2.5-3.1.3-2.1.9-2.7,2.7-2.7s2.4-.6,2.7-2.8c.2-1.9.9-2.8,2.5-3,1.5-.2,2.3-1.1,2.5-3,.2-2.1.9-2.8,3-3,2.3-.3,2.7-.9,3.3-5.3.5-3.8,1.1-4.9,2.5-4.9,1,0,2-1,2.4-2.4a4.319,4.319,0,0,1,3-3c1.9-.5,2.4-1.4,3-5.6.5-4,1-5,2.6-5,1.2,0,2-1,2.5-2.9a4.1,4.1,0,0,1,3-3.5c1.9-.5,2.4-1.5,3-5.6.5-3.9,1.1-5,2.5-5,1.3,0,1.9-1.1,2.4-5,.6-4.5.9-5,3.1-5,2,0,2.5-.5,2.5-2.4,0-5,1.2-8.6,3-8.6,1.3,0,1.9-1.2,2.4-5.3.3-2.8.6-6.7.6-8.5,0-2.7.3-3.2,2.5-3.2h2.5v-35h-2.5c-2.2,0-2.5-.5-3.1-5.1-.5-4-1.2-5.2-2.9-5.9a5.283,5.283,0,0,1-2.8-2.9c-.5-2-1.2-2.1-10.9-2.1C1948-293,1943-292.7,1942.7-292.3Z" fill="#c93635"/>
    </g>
  </g>
</svg>
